<svg xmlns="http://www.w3.org/2000/svg" width="24" height="25" viewBox="0 0 24 25" fill="none">
  <path d="M12 3.19189C16.95 3.19189 21 7.24189 21 12.1919C21 17.1419 16.95 21.1919 12 21.1919C7.05 21.1919 3 17.1419 3 12.1919C3 7.24189 7.05 3.19189 12 3.19189ZM12 1.69189C6.225 1.69189 1.5 6.41689 1.5 12.1919C1.5 17.9669 6.225 22.6919 12 22.6919C17.775 22.6919 22.5 17.9669 22.5 12.1919C22.5 6.41689 17.775 1.69189 12 1.69189Z" fill="white"/>
  <path d="M18 11.4419H12.75V6.19189H11.25V11.4419H6V12.9419H11.25V18.1919H12.75V12.9419H18V11.4419Z" fill="white"/>
</svg>