<svg xmlns="http://www.w3.org/2000/svg" width="24" height="25" viewBox="0 0 24 25" fill="none">
  <g clip-path="url(#clip0_17_7274)">
    <path d="M3.97138 11.9484H7.74952M8.72028 14.9793L5.91476 6L3 14.9793M10.6171 9.02065V18M17.8699 11.8367L21 14.98M16.6825 13.0714L20.568 9.03098M10.6177 12.7306C10.6187 13.3259 10.8463 13.8966 11.2506 14.318C11.655 14.7394 12.2034 14.9771 12.7759 14.9793C13.3484 14.9773 13.8969 14.7396 14.3015 14.3182C14.706 13.8968 14.9336 13.326 14.9346 12.7306V11.2694C14.9336 10.674 14.706 10.1032 14.3015 9.68178C13.8969 9.2604 13.3484 9.0227 12.7759 9.02065V9.02065C12.2033 9.0227 11.6548 9.2604 11.2502 9.68178C10.8457 10.1032 10.6181 10.674 10.6171 11.2694M16.6825 6V14.9793" stroke="white" stroke-linecap="round" stroke-linejoin="round"/>
    <path d="M1 9.38378V21.8108C1 22.1262 1.12529 22.4287 1.34831 22.6517C1.57132 22.8747 1.8738 23 2.18919 23H21.8108C22.1262 23 22.4287 22.8747 22.6517 22.6517C22.8747 22.4287 23 22.1262 23 21.8108V2.18919C23 1.8738 22.8747 1.57132 22.6517 1.34831C22.4287 1.12529 22.1262 1 21.8108 1H2.18919C1.8738 1 1.57132 1.12529 1.34831 1.34831C1.12529 1.57132 1 1.8738 1 2.18919V9.38378Z" stroke="white" stroke-linecap="round" stroke-linejoin="round"/>
  </g>
  <defs>
    <clipPath id="clip0_17_7274">
      <rect width="24" height="24" fill="white" transform="translate(0 0.191895)"/>
    </clipPath>
  </defs>
</svg>