<svg xmlns="http://www.w3.org/2000/svg" width="24" height="25" viewBox="0 0 24 25" fill="none">
  <path d="M22 8.19089C21.9998 8.01242 21.9519 7.83725 21.8611 7.68356C21.7704 7.52987 21.6402 7.40327 21.484 7.31689L12.462 2.31689C12.3138 2.23521 12.1473 2.19238 11.978 2.19238C11.8088 2.19238 11.6422 2.23521 11.494 2.31689L2.516 7.27689C2.36004 7.36325 2.23 7.48974 2.13935 7.64325C2.0487 7.79677 2.00073 7.97172 2.00043 8.15001C2.00012 8.32829 2.04748 8.50341 2.13761 8.65723C2.22773 8.81106 2.35734 8.93799 2.513 9.02489L11.535 14.0649C11.6835 14.1483 11.851 14.1923 12.0214 14.1924C12.1917 14.1926 12.3593 14.149 12.508 14.0659L21.486 9.06589C21.642 8.97916 21.7719 8.85229 21.8622 8.69843C21.9526 8.54457 22.0002 8.36933 22 8.19089ZM12.023 12.0459L5.06 8.15689L11.977 4.33489L18.941 8.19389L12.023 12.0459Z" fill="white"/>
  <path d="M20.515 11.3179L12 16.0479L3.48498 11.3179L2.51398 13.0659L11.514 18.0659C11.6625 18.1484 11.8296 18.1916 11.9995 18.1916C12.1694 18.1916 12.3365 18.1484 12.485 18.0659L21.485 13.0659L20.515 11.3179Z" fill="white"/>
  <path d="M20.515 15.3179L12 20.0479L3.48498 15.3179L2.51398 17.0659L11.514 22.0659C11.6625 22.1484 11.8296 22.1916 11.9995 22.1916C12.1694 22.1916 12.3365 22.1484 12.485 22.0659L21.485 17.0659L20.515 15.3179Z" fill="white"/>
</svg>