<svg xmlns="http://www.w3.org/2000/svg" width="25" height="25" viewBox="0 0 25 25" fill="none">
  <g clip-path="url(#clip0_21_17050)">
    <path d="M7.0325 0.974894C7.22266 0.917413 7.42786 0.937725 7.60306 1.03137C7.77826 1.12502 7.90915 1.28435 7.967 1.47439L8.4035 2.90839C9.62137 2.11256 11.0452 1.68975 12.5 1.69189C14.0105 1.69189 15.419 2.13889 16.5965 2.90839L17.0315 1.47439C17.0595 1.3795 17.106 1.29109 17.1684 1.21425C17.2307 1.13742 17.3076 1.07367 17.3947 1.0267C17.4818 0.979719 17.5773 0.950436 17.6757 0.940533C17.7742 0.930631 17.8736 0.940305 17.9683 0.968999C18.063 0.997693 18.1511 1.04484 18.2275 1.10772C18.3039 1.1706 18.367 1.24798 18.4134 1.33539C18.4598 1.4228 18.4884 1.51852 18.4976 1.61704C18.5068 1.71555 18.4964 1.81491 18.467 1.90939L17.852 3.93739C19.2308 5.33846 20.0025 7.22614 20 9.19189H20.75C20.9489 9.19189 21.1397 9.11288 21.2803 8.97222C21.421 8.83157 21.5 8.64081 21.5 8.44189V7.69189C21.5 7.49298 21.579 7.30222 21.7197 7.16156C21.8603 7.02091 22.0511 6.94189 22.25 6.94189C22.4489 6.94189 22.6397 7.02091 22.7803 7.16156C22.921 7.30222 23 7.49298 23 7.69189V8.44189C23 9.03863 22.7629 9.61093 22.341 10.0329C21.919 10.4548 21.3467 10.6919 20.75 10.6919H20V12.1919H22.25C22.4489 12.1919 22.6397 12.2709 22.7803 12.4116C22.921 12.5522 23 12.743 23 12.9419C23 13.1408 22.921 13.3316 22.7803 13.4722C22.6397 13.6129 22.4489 13.6919 22.25 13.6919H20V15.1919H20.75C21.3467 15.1919 21.919 15.4289 22.341 15.8509C22.7629 16.2729 23 16.8452 23 17.4419V18.1919C23 18.3908 22.921 18.5816 22.7803 18.7222C22.6397 18.8629 22.4489 18.9419 22.25 18.9419C22.0511 18.9419 21.8603 18.8629 21.7197 18.7222C21.579 18.5816 21.5 18.3908 21.5 18.1919V17.4419C21.5 17.243 21.421 17.0522 21.2803 16.9116C21.1397 16.7709 20.9489 16.6919 20.75 16.6919H20C20 18.681 19.2098 20.5887 17.8033 21.9952C16.3968 23.4017 14.4891 24.1919 12.5 24.1919C10.5109 24.1919 8.60322 23.4017 7.1967 21.9952C5.79018 20.5887 5 18.681 5 16.6919H4.25C4.05109 16.6919 3.86032 16.7709 3.71967 16.9116C3.57902 17.0522 3.5 17.243 3.5 17.4419V18.1919C3.5 18.3908 3.42098 18.5816 3.28033 18.7222C3.13968 18.8629 2.94891 18.9419 2.75 18.9419C2.55109 18.9419 2.36032 18.8629 2.21967 18.7222C2.07902 18.5816 2 18.3908 2 18.1919V17.4419C2 16.8452 2.23705 16.2729 2.65901 15.8509C3.08097 15.4289 3.65326 15.1919 4.25 15.1919H5V13.6919H2.75C2.55109 13.6919 2.36032 13.6129 2.21967 13.4722C2.07902 13.3316 2 13.1408 2 12.9419C2 12.743 2.07902 12.5522 2.21967 12.4116C2.36032 12.2709 2.55109 12.1919 2.75 12.1919H5V10.6919H4.25C3.65326 10.6919 3.08097 10.4548 2.65901 10.0329C2.23705 9.61093 2 9.03863 2 8.44189V7.69189C2 7.49298 2.07902 7.30222 2.21967 7.16156C2.36032 7.02091 2.55109 6.94189 2.75 6.94189C2.94891 6.94189 3.13968 7.02091 3.28033 7.16156C3.42098 7.30222 3.5 7.49298 3.5 7.69189V8.44189C3.5 8.64081 3.57902 8.83157 3.71967 8.97222C3.86032 9.11288 4.05109 9.19189 4.25 9.19189H5C5 7.14589 5.8205 5.29039 7.148 3.93739L6.533 1.90939C6.47552 1.71923 6.49583 1.51404 6.58948 1.33884C6.68312 1.16364 6.84245 1.03275 7.0325 0.974894ZM6.5 10.6919V16.6919C6.4995 18.1537 7.03264 19.5653 7.99932 20.6618C8.96599 21.7583 10.2997 22.4642 11.75 22.6469V10.6919H6.5ZM13.25 10.6919V22.6469C14.7003 22.4642 16.034 21.7583 17.0007 20.6618C17.9674 19.5653 18.5005 18.1537 18.5 16.6919V10.6919H13.25ZM18.5 9.19189C18.501 8.34733 18.3233 7.51211 17.9784 6.74116C17.6335 5.97022 17.1293 5.28102 16.499 4.71889C15.4004 3.73344 13.9758 3.1895 12.5 3.19189C11.0236 3.18913 9.59853 3.73309 8.4995 4.71889C7.86945 5.28116 7.36555 5.97042 7.02093 6.74135C6.67631 7.51229 6.49877 8.34744 6.5 9.19189H18.5Z" fill="#F5F5F5"/>
  </g>
  <defs>
    <clipPath id="clip0_21_17050">
      <rect width="24" height="24" fill="white" transform="translate(0.5 0.191895)"/>
    </clipPath>
  </defs>
</svg>