<svg xmlns="http://www.w3.org/2000/svg" width="25" height="25" viewBox="0 0 25 25" fill="none">
  <path d="M23.7049 11.9369C22.8228 9.65513 21.2914 7.68186 19.3 6.26096C17.3086 4.84006 14.9445 4.03382 12.4999 3.94189C10.0553 4.03382 7.69122 4.84006 5.69983 6.26096C3.70844 7.68186 2.17705 9.65513 1.29493 11.9369C1.23535 12.1017 1.23535 12.2821 1.29493 12.4469C2.17705 14.7287 3.70844 16.7019 5.69983 18.1228C7.69122 19.5437 10.0553 20.35 12.4999 20.4419C14.9445 20.35 17.3086 19.5437 19.3 18.1228C21.2914 16.7019 22.8228 14.7287 23.7049 12.4469C23.7645 12.2821 23.7645 12.1017 23.7049 11.9369ZM12.4999 18.9419C8.52493 18.9419 4.32493 15.9944 2.80243 12.1919C4.32493 8.38939 8.52493 5.44189 12.4999 5.44189C16.4749 5.44189 20.6749 8.38939 22.1974 12.1919C20.6749 15.9944 16.4749 18.9419 12.4999 18.9419Z" fill="white"/>
  <path d="M12.5 7.69189C11.61 7.69189 10.74 7.95582 9.99994 8.45028C9.25991 8.94475 8.68314 9.64755 8.34254 10.4698C8.00195 11.2921 7.91283 12.1969 8.08647 13.0698C8.2601 13.9427 8.68869 14.7445 9.31802 15.3739C9.94736 16.0032 10.7492 16.4318 11.6221 16.6054C12.495 16.7791 13.3998 16.6899 14.2221 16.3494C15.0443 16.0088 15.7471 15.432 16.2416 14.692C16.7361 13.9519 17 13.0819 17 12.1919C17 10.9984 16.5259 9.85383 15.682 9.00991C14.8381 8.166 13.6935 7.69189 12.5 7.69189ZM12.5 15.1919C11.9067 15.1919 11.3266 15.0159 10.8333 14.6863C10.3399 14.3567 9.95543 13.8881 9.72836 13.3399C9.5013 12.7918 9.44189 12.1886 9.55765 11.6066C9.6734 11.0247 9.95912 10.4901 10.3787 10.0706C10.7982 9.65102 11.3328 9.36529 11.9147 9.24954C12.4967 9.13378 13.0999 9.19319 13.6481 9.42026C14.1962 9.64732 14.6648 10.0318 14.9944 10.5252C15.3241 11.0185 15.5 11.5986 15.5 12.1919C15.5 12.9875 15.1839 13.7506 14.6213 14.3132C14.0587 14.8758 13.2957 15.1919 12.5 15.1919Z" fill="white"/>
</svg>