<svg xmlns="http://www.w3.org/2000/svg" width="24" height="25" viewBox="0 0 24 25" fill="none">
  <path d="M12 1.69189C9.9233 1.69189 7.89323 2.30771 6.16652 3.46146C4.4398 4.61522 3.09399 6.25509 2.29927 8.17372C1.50455 10.0923 1.29661 12.2035 1.70176 14.2403C2.1069 16.2771 3.10693 18.1481 4.57538 19.6165C6.04383 21.085 7.91476 22.085 9.95156 22.4901C11.9884 22.8953 14.0996 22.6873 16.0182 21.8926C17.9368 21.0979 19.5767 19.7521 20.7304 18.0254C21.8842 16.2987 22.5 14.2686 22.5 12.1919C22.5 9.40712 21.3938 6.73641 19.4246 4.76727C17.4555 2.79814 14.7848 1.69189 12 1.69189ZM12 21.1919C10.22 21.1919 8.47992 20.6641 6.99987 19.6751C5.51983 18.6862 4.36628 17.2806 3.68509 15.636C3.0039 13.9915 2.82567 12.1819 3.17294 10.4361C3.5202 8.69025 4.37737 7.08661 5.63604 5.82793C6.89472 4.56926 8.49836 3.71209 10.2442 3.36483C11.99 3.01756 13.7996 3.19579 15.4442 3.87698C17.0887 4.55817 18.4943 5.71172 19.4832 7.19176C20.4722 8.6718 21 10.4119 21 12.1919C21 14.5788 20.0518 16.868 18.364 18.5559C16.6761 20.2437 14.387 21.1919 12 21.1919Z" fill="white"/>
  <path d="M12 18.9419C12.6213 18.9419 13.125 18.4382 13.125 17.8169C13.125 17.1956 12.6213 16.6919 12 16.6919C11.3787 16.6919 10.875 17.1956 10.875 17.8169C10.875 18.4382 11.3787 18.9419 12 18.9419Z" fill="white"/>
  <path d="M12.75 6.1919H11.625C11.1815 6.19091 10.7422 6.27754 10.3323 6.4468C9.92236 6.61606 9.54991 6.86462 9.23632 7.17821C8.92272 7.49181 8.67416 7.86426 8.5049 8.27418C8.33564 8.6841 8.24902 9.12341 8.25001 9.5669V9.9419H9.75001V9.5669C9.75001 9.06962 9.94755 8.59271 10.2992 8.24108C10.6508 7.88945 11.1277 7.6919 11.625 7.6919H12.75C13.2473 7.6919 13.7242 7.88945 14.0758 8.24108C14.4275 8.59271 14.625 9.06962 14.625 9.5669C14.625 10.0642 14.4275 10.5411 14.0758 10.8927C13.7242 11.2444 13.2473 11.4419 12.75 11.4419H11.25V14.8169H12.75V12.9419C13.6451 12.9419 14.5036 12.5863 15.1365 11.9534C15.7694 11.3205 16.125 10.462 16.125 9.5669C16.125 8.6718 15.7694 7.81335 15.1365 7.18042C14.5036 6.54748 13.6451 6.1919 12.75 6.1919Z" fill="white"/>
</svg>