<svg xmlns="http://www.w3.org/2000/svg" width="24" height="24" viewBox="0 0 24 24" fill="none">
  <path d="M13.5443 10.456C12.7252 9.6372 11.6144 9.17725 10.4563 9.17725C9.29815 9.17725 8.18741 9.6372 7.3683 10.456L4.2793 13.544C3.46018 14.3631 3 15.474 3 16.6325C3 17.7909 3.46018 18.9018 4.2793 19.721C5.09842 20.5401 6.20939 21.0003 7.3678 21.0003C8.52621 21.0003 9.63718 20.5401 10.4563 19.721L12.0003 18.177" stroke="#767676" stroke-width="2" stroke-linecap="round" stroke-linejoin="round"/>
  <path d="M10.4563 13.5441C11.2754 14.3628 12.3861 14.8228 13.5443 14.8228C14.7024 14.8228 15.8132 14.3628 16.6323 13.5441L19.7213 10.4561C20.5404 9.63693 21.0006 8.52597 21.0006 7.36755C21.0006 6.20914 20.5404 5.09818 19.7213 4.27905C18.9022 3.45993 17.7912 2.99976 16.6328 2.99976C15.4744 2.99976 14.3634 3.45993 13.5443 4.27905L12.0003 5.82305" stroke="#767676" stroke-width="2" stroke-linecap="round" stroke-linejoin="round"/>
</svg>