<svg xmlns="http://www.w3.org/2000/svg" width="24" height="24" viewBox="0 0 24 24" fill="none">
  <path d="M21.3752 4.5H7.68774C7.58462 4.5 7.50024 4.58438 7.50024 4.6875V6C7.50024 6.10313 7.58462 6.1875 7.68774 6.1875H21.3752C21.4784 6.1875 21.5627 6.10313 21.5627 6V4.6875C21.5627 4.58438 21.4784 4.5 21.3752 4.5ZM21.3752 11.1562H7.68774C7.58462 11.1562 7.50024 11.2406 7.50024 11.3438V12.6562C7.50024 12.7594 7.58462 12.8438 7.68774 12.8438H21.3752C21.4784 12.8438 21.5627 12.7594 21.5627 12.6562V11.3438C21.5627 11.2406 21.4784 11.1562 21.3752 11.1562ZM21.3752 17.8125H7.68774C7.58462 17.8125 7.50024 17.8969 7.50024 18V19.3125C7.50024 19.4156 7.58462 19.5 7.68774 19.5H21.3752C21.4784 19.5 21.5627 19.4156 21.5627 19.3125V18C21.5627 17.8969 21.4784 17.8125 21.3752 17.8125ZM2.43774 5.34375C2.43774 5.51611 2.47169 5.68678 2.53765 5.84602C2.60361 6.00526 2.70029 6.14995 2.82217 6.27183C2.94404 6.3937 3.08873 6.49038 3.24797 6.55634C3.40721 6.6223 3.57788 6.65625 3.75024 6.65625C3.9226 6.65625 4.09328 6.6223 4.25252 6.55634C4.41176 6.49038 4.55644 6.3937 4.67832 6.27183C4.8002 6.14995 4.89688 6.00526 4.96284 5.84602C5.0288 5.68678 5.06274 5.51611 5.06274 5.34375C5.06274 5.17139 5.0288 5.00072 4.96284 4.84148C4.89688 4.68224 4.8002 4.53755 4.67832 4.41567C4.55644 4.2938 4.41176 4.19712 4.25252 4.13116C4.09328 4.0652 3.9226 4.03125 3.75024 4.03125C3.57788 4.03125 3.40721 4.0652 3.24797 4.13116C3.08873 4.19712 2.94404 4.2938 2.82217 4.41567C2.70029 4.53755 2.60361 4.68224 2.53765 4.84148C2.47169 5.00072 2.43774 5.17139 2.43774 5.34375ZM2.43774 12C2.43774 12.1724 2.47169 12.343 2.53765 12.5023C2.60361 12.6615 2.70029 12.8062 2.82217 12.9281C2.94404 13.05 3.08873 13.1466 3.24797 13.2126C3.40721 13.2786 3.57788 13.3125 3.75024 13.3125C3.9226 13.3125 4.09328 13.2786 4.25252 13.2126C4.41176 13.1466 4.55644 13.05 4.67832 12.9281C4.8002 12.8062 4.89688 12.6615 4.96284 12.5023C5.0288 12.343 5.06274 12.1724 5.06274 12C5.06274 11.8276 5.0288 11.657 4.96284 11.4977C4.89688 11.3385 4.8002 11.1938 4.67832 11.0719C4.55644 10.95 4.41176 10.8534 4.25252 10.7874C4.09328 10.7214 3.9226 10.6875 3.75024 10.6875C3.57788 10.6875 3.40721 10.7214 3.24797 10.7874C3.08873 10.8534 2.94404 10.95 2.82217 11.0719C2.70029 11.1938 2.60361 11.3385 2.53765 11.4977C2.47169 11.657 2.43774 11.8276 2.43774 12ZM2.43774 18.6562C2.43774 18.8286 2.47169 18.9993 2.53765 19.1585C2.60361 19.3178 2.70029 19.4625 2.82217 19.5843C2.94404 19.7062 3.08873 19.8029 3.24797 19.8688C3.40721 19.9348 3.57788 19.9688 3.75024 19.9688C3.9226 19.9688 4.09328 19.9348 4.25252 19.8688C4.41176 19.8029 4.55644 19.7062 4.67832 19.5843C4.8002 19.4625 4.89688 19.3178 4.96284 19.1585C5.0288 18.9993 5.06274 18.8286 5.06274 18.6562C5.06274 18.4839 5.0288 18.3132 4.96284 18.154C4.89688 17.9947 4.8002 17.85 4.67832 17.7282C4.55644 17.6063 4.41176 17.5096 4.25252 17.4437C4.09328 17.3777 3.9226 17.3438 3.75024 17.3438C3.57788 17.3438 3.40721 17.3777 3.24797 17.4437C3.08873 17.5096 2.94404 17.6063 2.82217 17.7282C2.70029 17.85 2.60361 17.9947 2.53765 18.154C2.47169 18.3132 2.43774 18.4839 2.43774 18.6562Z" fill="#767676"/>
</svg>