<svg xmlns="http://www.w3.org/2000/svg" width="24" height="25" viewBox="0 0 24 25" fill="none">
  <path d="M6.03984 17.8169C6.08672 17.8169 6.13359 17.8122 6.18047 17.8052L10.1227 17.1138C10.1695 17.1044 10.2141 17.0833 10.2469 17.0481L20.182 7.11299C20.2038 7.09131 20.221 7.06555 20.2328 7.0372C20.2445 7.00884 20.2506 6.97845 20.2506 6.94775C20.2506 6.91706 20.2445 6.88666 20.2328 6.85831C20.221 6.82996 20.2038 6.8042 20.182 6.78252L16.2867 2.88486C16.2422 2.84033 16.1836 2.81689 16.1203 2.81689C16.057 2.81689 15.9984 2.84033 15.9539 2.88486L6.01875 12.82C5.98359 12.8552 5.9625 12.8974 5.95312 12.9442L5.26172 16.8864C5.23892 17.012 5.24707 17.1412 5.28545 17.2629C5.32384 17.3846 5.39132 17.4951 5.48203 17.5849C5.63672 17.7349 5.83125 17.8169 6.03984 17.8169ZM7.61953 13.7294L16.1203 5.23096L17.8383 6.94893L9.3375 15.4474L7.25391 15.8153L7.61953 13.7294ZM20.625 19.7856H3.375C2.96016 19.7856 2.625 20.1208 2.625 20.5356V21.3794C2.625 21.4825 2.70937 21.5669 2.8125 21.5669H21.1875C21.2906 21.5669 21.375 21.4825 21.375 21.3794V20.5356C21.375 20.1208 21.0398 19.7856 20.625 19.7856Z" fill="#F5F5F5"/>
</svg>