<svg xmlns="http://www.w3.org/2000/svg" width="24" height="25" viewBox="0 0 24 25" fill="none">
  <path d="M14.079 1.69189C14.2378 1.6919 14.3925 1.7423 14.5208 1.83584C14.6491 1.92938 14.7444 2.06122 14.793 2.21239L15.618 4.77589C15.9645 4.94539 16.296 5.13589 16.6125 5.35039L19.2465 4.78339C19.4018 4.75024 19.5636 4.76723 19.7086 4.83193C19.8537 4.89662 19.9744 5.00568 20.0535 5.14339L22.1325 8.74189C22.2119 8.87953 22.2455 9.03882 22.2285 9.1968C22.2115 9.35478 22.1448 9.50328 22.038 9.62089L20.2305 11.6159C20.2568 11.9984 20.2568 12.3823 20.2305 12.7649L22.038 14.7629C22.1448 14.8805 22.2115 15.029 22.2285 15.187C22.2455 15.345 22.2119 15.5043 22.1325 15.6419L20.0535 19.2419C19.9742 19.3793 19.8533 19.4881 19.7083 19.5525C19.5633 19.6169 19.4016 19.6337 19.2465 19.6004L16.6125 19.0334C16.2975 19.2464 15.9645 19.4384 15.6195 19.6079L14.793 22.1714C14.7444 22.3226 14.6491 22.4544 14.5208 22.548C14.3925 22.6415 14.2378 22.6919 14.079 22.6919H9.92098C9.76219 22.6919 9.6075 22.6415 9.47919 22.548C9.35088 22.4544 9.25557 22.3226 9.20698 22.1714L8.38348 19.6094C8.03791 19.4404 7.70459 19.2474 7.38598 19.0319L4.75348 19.6004C4.59818 19.6336 4.43636 19.6166 4.29133 19.5519C4.1463 19.4872 4.02556 19.3781 3.94648 19.2404L1.86748 15.6419C1.78809 15.5043 1.75446 15.345 1.77145 15.187C1.78843 15.029 1.85515 14.8805 1.96198 14.7629L3.76948 12.7649C3.7433 12.3833 3.7433 12.0004 3.76948 11.6189L1.96198 9.62089C1.85515 9.50328 1.78843 9.35478 1.77145 9.1968C1.75446 9.03882 1.78809 8.87953 1.86748 8.74189L3.94648 5.14189C4.02577 5.00446 4.14662 4.89571 4.29163 4.83129C4.43663 4.76687 4.59834 4.7501 4.75348 4.78339L7.38598 5.35189C7.70398 5.13739 8.03698 4.94389 8.38348 4.77439L9.20848 2.21239C9.25691 2.06171 9.35177 1.93021 9.47948 1.83672C9.60719 1.74323 9.76121 1.69253 9.91948 1.69189H14.0775H14.079ZM13.53 3.19189H10.47L9.61798 5.84239L9.04348 6.12289C8.76106 6.2611 8.48842 6.41847 8.22748 6.59389L7.69648 6.95389L4.97248 6.36589L3.44248 9.01789L5.30998 11.0849L5.26498 11.7209C5.24343 12.0345 5.24343 12.3493 5.26498 12.6629L5.30998 13.2989L3.43948 15.3659L4.97098 18.0179L7.69498 17.4314L8.22598 17.7899C8.48692 17.9653 8.75956 18.1227 9.04198 18.2609L9.61648 18.5414L10.47 21.1919H13.533L14.388 18.5399L14.961 18.2609C15.2431 18.123 15.5153 17.9656 15.7755 17.7899L16.305 17.4314L19.0305 18.0179L20.5605 15.3659L18.6915 13.2989L18.7365 12.6629C18.7581 12.3488 18.7581 12.0335 18.7365 11.7194L18.6915 11.0834L20.562 9.01789L19.0305 6.36589L16.305 6.95089L15.7755 6.59389C15.5153 6.41812 15.2431 6.26073 14.961 6.12289L14.388 5.84389L13.5315 3.19189H13.53ZM12 7.69189C13.1935 7.69189 14.338 8.166 15.182 9.00991C16.0259 9.85383 16.5 10.9984 16.5 12.1919C16.5 13.3854 16.0259 14.53 15.182 15.3739C14.338 16.2178 13.1935 16.6919 12 16.6919C10.8065 16.6919 9.66191 16.2178 8.818 15.3739C7.97409 14.53 7.49998 13.3854 7.49998 12.1919C7.49998 10.9984 7.97409 9.85383 8.818 9.00991C9.66191 8.166 10.8065 7.69189 12 7.69189ZM12 9.19189C11.2043 9.19189 10.4413 9.50797 9.87866 10.0706C9.31605 10.6332 8.99998 11.3962 8.99998 12.1919C8.99998 12.9875 9.31605 13.7506 9.87866 14.3132C10.4413 14.8758 11.2043 15.1919 12 15.1919C12.7956 15.1919 13.5587 14.8758 14.1213 14.3132C14.6839 13.7506 15 12.9875 15 12.1919C15 11.3962 14.6839 10.6332 14.1213 10.0706C13.5587 9.50797 12.7956 9.19189 12 9.19189Z" fill="white"/>
</svg>