<svg xmlns="http://www.w3.org/2000/svg" width="24" height="24" viewBox="0 0 24 24" fill="none">
  <path d="M21.25 13C21.4312 13 21.6063 13.0656 21.7429 13.1848C21.8795 13.3039 21.9684 13.4684 21.993 13.648L22 13.75V18.75C22.0001 19.5801 21.6824 20.3788 21.1123 20.9822C20.5422 21.5856 19.7628 21.948 18.934 21.995L18.75 22H14.082C14.618 21.615 15.055 21.1 15.347 20.501L18.75 20.5C19.1893 20.5 19.6126 20.3347 19.9357 20.037C20.2588 19.7392 20.4581 19.3309 20.494 18.893L20.5 18.75V13.75C20.5 13.5511 20.579 13.3603 20.7197 13.2197C20.8603 13.079 21.0511 13 21.25 13ZM11.75 9C12.1768 9 12.5994 9.08406 12.9937 9.24739C13.388 9.41072 13.7463 9.65011 14.0481 9.9519C14.3499 10.2537 14.5893 10.612 14.7526 11.0063C14.9159 11.4006 15 11.8232 15 12.25V18.75C15 19.1768 14.9159 19.5994 14.7526 19.9937C14.5893 20.388 14.3499 20.7463 14.0481 21.0481C13.7463 21.3499 13.388 21.5893 12.9937 21.7526C12.5994 21.9159 12.1768 22 11.75 22H5.25C4.8232 22 4.40059 21.9159 4.00628 21.7526C3.61197 21.5893 3.25369 21.3499 2.9519 21.0481C2.65011 20.7463 2.41072 20.388 2.24739 19.9937C2.08406 19.5994 2 19.1768 2 18.75V12.25C2 11.8232 2.08406 11.4006 2.24739 11.0063C2.41072 10.612 2.65011 10.2537 2.9519 9.9519C3.5614 9.34241 4.38805 9 5.25 9H11.75ZM11.75 10.5H5.25C4.78587 10.5 4.34075 10.6844 4.01256 11.0126C3.68437 11.3408 3.5 11.7859 3.5 12.25V18.75C3.5 19.716 4.283 20.5 5.25 20.5H11.75C12.2141 20.5 12.6592 20.3156 12.9874 19.9874C13.3156 19.6592 13.5 19.2141 13.5 18.75V12.25C13.5 11.7859 13.3156 11.3408 12.9874 11.0126C12.6592 10.6844 12.2141 10.5 11.75 10.5ZM6.06 13.103C6.11595 13.0001 6.20628 12.9201 6.31521 12.8769C6.42413 12.8338 6.54475 12.8303 6.656 12.867L6.738 12.903L10.694 15.061C10.7662 15.1003 10.8276 15.1569 10.8727 15.2256C10.9178 15.2943 10.9453 15.3731 10.9527 15.455C10.9602 15.5368 10.9473 15.6193 10.9152 15.695C10.8832 15.7707 10.833 15.8373 10.769 15.889L10.694 15.939L6.738 18.097C6.66851 18.1348 6.59104 18.1556 6.51195 18.1577C6.43286 18.1597 6.35442 18.143 6.28306 18.1088C6.2117 18.0746 6.14947 18.024 6.10148 17.9611C6.05349 17.8982 6.02111 17.8248 6.007 17.747L6 17.658V13.343C5.99989 13.2592 6.01986 13.1766 6.06 13.103ZM18.75 2C19.5801 1.99995 20.3788 2.31755 20.9822 2.88767C21.5856 3.45779 21.948 4.23719 21.995 5.066L22 5.25V10.25C21.9999 10.44 21.9278 10.6229 21.798 10.7618C21.6683 10.9006 21.4907 10.9851 21.3011 10.998C21.1115 11.011 20.9241 10.9515 20.7767 10.8316C20.6293 10.7117 20.5329 10.5402 20.507 10.352L20.5 10.25V5.25C20.5 4.81065 20.3347 4.38739 20.037 4.06429C19.7392 3.74119 19.3309 3.5419 18.893 3.506L18.75 3.5H13.75C13.56 3.49994 13.3771 3.42776 13.2382 3.29803C13.0994 3.1683 13.0149 2.9907 13.002 2.80112C12.989 2.61154 13.0485 2.42411 13.1684 2.2767C13.2883 2.12929 13.4598 2.0329 13.648 2.007L13.75 2H18.75ZM10.25 2C10.44 2.00006 10.6229 2.07224 10.7618 2.20197C10.9006 2.3317 10.9851 2.5093 10.998 2.69888C11.011 2.88846 10.9515 3.07589 10.8316 3.2233C10.7117 3.37071 10.5402 3.4671 10.352 3.493L10.25 3.5H5.25C4.81081 3.50002 4.38768 3.66517 4.06461 3.96268C3.74154 4.26019 3.54214 4.6683 3.506 5.106L3.5 5.25V8.652C2.90284 8.94322 2.3874 9.37825 2 9.918V5.25C1.99993 4.42003 2.3174 3.62147 2.88731 3.0181C3.45722 2.41472 4.23637 2.05224 5.065 2.005L5.25 2H10.25Z" fill="#D9D9D9"/>
</svg>